<svg width="172" height="168" viewBox="0 0 172 168" fill="none" xmlns="http://www.w3.org/2000/svg">
<path d="M168.5 0.000159461H146.563C146.563 0.000159461 0.187659 146.313 0.000159461 146.469V164.125C-0.00401896 164.537 0.0739578 164.945 0.229524 165.326C0.38509 165.707 0.615119 166.053 0.906138 166.344C1.19716 166.635 1.54332 166.865 1.92435 167.021C2.30538 167.176 2.71362 167.254 3.12516 167.25H20.5939C20.7189 167 171.094 16.5939 171.094 16.5939C171.257 16.4315 171.435 16.285 171.625 16.1564V3.12516C171.629 2.71362 171.551 2.30538 171.396 1.92435C171.24 1.54332 171.01 1.19716 170.719 0.906138C170.428 0.615119 170.082 0.38509 169.701 0.229524C169.32 0.0739578 168.912 -0.00401896 168.5 0.000159461ZM129.313 167.25H168.5C168.912 167.254 169.32 167.176 169.701 167.021C170.082 166.865 170.428 166.635 170.719 166.344C171.01 166.053 171.24 165.707 171.396 165.326C171.551 164.945 171.629 164.537 171.625 164.125V124.938C167.935 128.641 129.313 167.25 129.313 167.25ZM79.3127 167.25H120.594C120.719 167 171.438 116.281 171.625 116.156V74.9377L79.3127 167.25ZM29.3127 167.25H70.5939C70.7189 167 171.438 66.2814 171.625 66.1564V24.9377L29.3127 167.25ZM137.688 0.000159461H96.5627C90.4408 6.12516 0.187659 96.3127 0.000159461 96.4689V137.688L137.688 0.000159461ZM87.6877 0.000159461H46.5627C31.054 15.5019 15.5331 30.9915 0.000159461 46.4689V87.6877L87.6877 0.000159461ZM37.6877 0.000159461H3.12516C2.71362 -0.00401896 2.30538 0.0739578 1.92435 0.229524C1.54332 0.38509 1.19716 0.615119 0.906138 0.906138C0.615119 1.19716 0.38509 1.54332 0.229524 1.92435C0.0739578 2.30538 -0.00401896 2.71362 0.000159461 3.12516V37.6877C3.96266 33.7189 37.6877 0.000159461 37.6877 0.000159461Z" fill="#545CFF" fill-opacity="0.83"/>
</svg>
